<mxfile host="app.diagrams.net" modified="2023-09-30T06:15:36.995Z" agent="Mozilla/5.0 (Windows NT 10.0; Win64; x64) AppleWebKit/537.36 (KHTML, like Gecko) Chrome/117.0.0.0 Safari/537.36" etag="NdrMnqilNFAvhaF8gqyI" version="21.8.2" type="github">
  <diagram name="페이지-1" id="RhQyZ2nHu4KyPLLU08xO">
    <mxGraphModel dx="1195" dy="632" grid="1" gridSize="10" guides="1" tooltips="1" connect="1" arrows="1" fold="1" page="1" pageScale="1" pageWidth="827" pageHeight="1169" math="0" shadow="0">
      <root>
        <mxCell id="0" />
        <mxCell id="1" parent="0" />
        <mxCell id="svscq64S9WQrC5IOfQ_I-1" value="이용자" style="shape=umlActor;verticalLabelPosition=bottom;verticalAlign=top;html=1;" vertex="1" parent="1">
          <mxGeometry x="44" y="340" width="30" height="60" as="geometry" />
        </mxCell>
        <mxCell id="svscq64S9WQrC5IOfQ_I-3" value="게시판 서비스" style="shape=umlFrame;whiteSpace=wrap;html=1;pointerEvents=0;width=100;height=30;" vertex="1" parent="1">
          <mxGeometry x="144" y="180" width="530" height="550" as="geometry" />
        </mxCell>
        <mxCell id="svscq64S9WQrC5IOfQ_I-40" style="rounded=0;orthogonalLoop=1;jettySize=auto;html=1;exitX=1;exitY=0.5;exitDx=0;exitDy=0;entryX=0;entryY=0.5;entryDx=0;entryDy=0;endArrow=none;endFill=0;" edge="1" parent="1" source="svscq64S9WQrC5IOfQ_I-4" target="svscq64S9WQrC5IOfQ_I-37">
          <mxGeometry relative="1" as="geometry" />
        </mxCell>
        <mxCell id="svscq64S9WQrC5IOfQ_I-4" value="회원 가입" style="rounded=1;whiteSpace=wrap;html=1;arcSize=40;fontColor=#000000;fillColor=#ffffc0;strokeColor=#ff0000;" vertex="1" parent="1">
          <mxGeometry x="174" y="340" width="120" height="40" as="geometry" />
        </mxCell>
        <mxCell id="svscq64S9WQrC5IOfQ_I-18" style="rounded=0;orthogonalLoop=1;jettySize=auto;html=1;exitX=0;exitY=0.5;exitDx=0;exitDy=0;endArrow=none;endFill=0;" edge="1" parent="1" source="svscq64S9WQrC5IOfQ_I-6">
          <mxGeometry relative="1" as="geometry">
            <mxPoint x="74" y="359.9999999999999" as="targetPoint" />
          </mxGeometry>
        </mxCell>
        <mxCell id="svscq64S9WQrC5IOfQ_I-26" style="rounded=0;orthogonalLoop=1;jettySize=auto;html=1;exitX=1;exitY=0.5;exitDx=0;exitDy=0;entryX=0.5;entryY=1;entryDx=0;entryDy=0;dashed=1;" edge="1" parent="1">
          <mxGeometry relative="1" as="geometry">
            <mxPoint x="293" y="460" as="sourcePoint" />
            <mxPoint x="353" y="259.9999999999999" as="targetPoint" />
          </mxGeometry>
        </mxCell>
        <mxCell id="svscq64S9WQrC5IOfQ_I-41" style="rounded=0;orthogonalLoop=1;jettySize=auto;html=1;exitX=1;exitY=0.5;exitDx=0;exitDy=0;entryX=0;entryY=0.5;entryDx=0;entryDy=0;endArrow=none;endFill=0;" edge="1" parent="1" source="svscq64S9WQrC5IOfQ_I-6" target="svscq64S9WQrC5IOfQ_I-37">
          <mxGeometry relative="1" as="geometry">
            <mxPoint x="730" y="379.9999999999999" as="targetPoint" />
            <Array as="points">
              <mxPoint x="490" y="380" />
            </Array>
          </mxGeometry>
        </mxCell>
        <mxCell id="svscq64S9WQrC5IOfQ_I-6" value="게시판 보기" style="rounded=1;whiteSpace=wrap;html=1;arcSize=40;fontColor=#000000;fillColor=#ffffc0;strokeColor=#ff0000;" vertex="1" parent="1">
          <mxGeometry x="174" y="440" width="120" height="40" as="geometry" />
        </mxCell>
        <mxCell id="svscq64S9WQrC5IOfQ_I-19" style="rounded=0;orthogonalLoop=1;jettySize=auto;html=1;exitX=0;exitY=0.5;exitDx=0;exitDy=0;endArrow=none;endFill=0;" edge="1" parent="1" source="svscq64S9WQrC5IOfQ_I-7">
          <mxGeometry relative="1" as="geometry">
            <mxPoint x="74" y="359.9999999999999" as="targetPoint" />
          </mxGeometry>
        </mxCell>
        <mxCell id="svscq64S9WQrC5IOfQ_I-27" style="rounded=0;orthogonalLoop=1;jettySize=auto;html=1;exitX=1;exitY=0.5;exitDx=0;exitDy=0;dashed=1;" edge="1" parent="1" source="svscq64S9WQrC5IOfQ_I-7">
          <mxGeometry relative="1" as="geometry">
            <mxPoint x="354" y="260" as="targetPoint" />
            <mxPoint x="293" y="630" as="sourcePoint" />
          </mxGeometry>
        </mxCell>
        <mxCell id="svscq64S9WQrC5IOfQ_I-30" value="include" style="edgeLabel;html=1;align=center;verticalAlign=middle;resizable=0;points=[];" vertex="1" connectable="0" parent="svscq64S9WQrC5IOfQ_I-27">
          <mxGeometry x="0.7088" relative="1" as="geometry">
            <mxPoint as="offset" />
          </mxGeometry>
        </mxCell>
        <mxCell id="svscq64S9WQrC5IOfQ_I-42" style="rounded=0;orthogonalLoop=1;jettySize=auto;html=1;exitX=1;exitY=0.5;exitDx=0;exitDy=0;entryX=0;entryY=0.5;entryDx=0;entryDy=0;endArrow=none;endFill=0;" edge="1" parent="1" source="svscq64S9WQrC5IOfQ_I-7" target="svscq64S9WQrC5IOfQ_I-37">
          <mxGeometry relative="1" as="geometry">
            <Array as="points">
              <mxPoint x="550" y="510" />
            </Array>
          </mxGeometry>
        </mxCell>
        <mxCell id="svscq64S9WQrC5IOfQ_I-7" value="게시글 보기" style="rounded=1;whiteSpace=wrap;html=1;arcSize=40;fontColor=#000000;fillColor=#ffffc0;strokeColor=#ff0000;" vertex="1" parent="1">
          <mxGeometry x="174" y="555" width="120" height="40" as="geometry" />
        </mxCell>
        <mxCell id="svscq64S9WQrC5IOfQ_I-16" style="rounded=0;orthogonalLoop=1;jettySize=auto;html=1;exitX=0;exitY=0.5;exitDx=0;exitDy=0;endArrow=none;endFill=0;entryX=1;entryY=0.3333333333333333;entryDx=0;entryDy=0;entryPerimeter=0;" edge="1" parent="1" source="svscq64S9WQrC5IOfQ_I-8" target="svscq64S9WQrC5IOfQ_I-1">
          <mxGeometry relative="1" as="geometry">
            <mxPoint x="84" y="390" as="targetPoint" />
          </mxGeometry>
        </mxCell>
        <mxCell id="svscq64S9WQrC5IOfQ_I-20" style="edgeStyle=orthogonalEdgeStyle;rounded=0;orthogonalLoop=1;jettySize=auto;html=1;dashed=1;" edge="1" parent="1" source="svscq64S9WQrC5IOfQ_I-8" target="svscq64S9WQrC5IOfQ_I-9">
          <mxGeometry relative="1" as="geometry" />
        </mxCell>
        <mxCell id="svscq64S9WQrC5IOfQ_I-21" value="include" style="edgeLabel;html=1;align=center;verticalAlign=middle;resizable=0;points=[];" vertex="1" connectable="0" parent="svscq64S9WQrC5IOfQ_I-20">
          <mxGeometry x="0.0139" relative="1" as="geometry">
            <mxPoint as="offset" />
          </mxGeometry>
        </mxCell>
        <mxCell id="svscq64S9WQrC5IOfQ_I-8" value="회원 로그인" style="rounded=1;whiteSpace=wrap;html=1;arcSize=40;fontColor=#000000;fillColor=#ffffc0;strokeColor=#ff0000;" vertex="1" parent="1">
          <mxGeometry x="294" y="220" width="120" height="40" as="geometry" />
        </mxCell>
        <mxCell id="svscq64S9WQrC5IOfQ_I-39" style="rounded=0;orthogonalLoop=1;jettySize=auto;html=1;exitX=1;exitY=0.5;exitDx=0;exitDy=0;entryX=0;entryY=0.5;entryDx=0;entryDy=0;endArrow=none;endFill=0;" edge="1" parent="1" source="svscq64S9WQrC5IOfQ_I-9" target="svscq64S9WQrC5IOfQ_I-37">
          <mxGeometry relative="1" as="geometry" />
        </mxCell>
        <mxCell id="svscq64S9WQrC5IOfQ_I-9" value="인증" style="rounded=1;whiteSpace=wrap;html=1;arcSize=40;fontColor=#000000;fillColor=#ffffc0;strokeColor=#ff0000;" vertex="1" parent="1">
          <mxGeometry x="524" y="220" width="120" height="40" as="geometry" />
        </mxCell>
        <mxCell id="svscq64S9WQrC5IOfQ_I-22" style="rounded=0;orthogonalLoop=1;jettySize=auto;html=1;entryX=1;entryY=0.5;entryDx=0;entryDy=0;exitX=0;exitY=0.5;exitDx=0;exitDy=0;dashed=1;" edge="1" parent="1" source="svscq64S9WQrC5IOfQ_I-10" target="svscq64S9WQrC5IOfQ_I-8">
          <mxGeometry relative="1" as="geometry" />
        </mxCell>
        <mxCell id="svscq64S9WQrC5IOfQ_I-23" value="extend" style="edgeLabel;html=1;align=center;verticalAlign=middle;resizable=0;points=[];" vertex="1" connectable="0" parent="svscq64S9WQrC5IOfQ_I-22">
          <mxGeometry x="-0.0779" y="2" relative="1" as="geometry">
            <mxPoint x="1" as="offset" />
          </mxGeometry>
        </mxCell>
        <mxCell id="svscq64S9WQrC5IOfQ_I-10" value="로그인 실패" style="rounded=1;whiteSpace=wrap;html=1;arcSize=40;fontColor=#000000;fillColor=#ffffc0;strokeColor=#ff0000;" vertex="1" parent="1">
          <mxGeometry x="524" y="310" width="120" height="40" as="geometry" />
        </mxCell>
        <mxCell id="svscq64S9WQrC5IOfQ_I-28" style="rounded=0;orthogonalLoop=1;jettySize=auto;html=1;exitX=0;exitY=0.5;exitDx=0;exitDy=0;dashed=1;" edge="1" parent="1" source="svscq64S9WQrC5IOfQ_I-11">
          <mxGeometry relative="1" as="geometry">
            <mxPoint x="294" y="460" as="targetPoint" />
          </mxGeometry>
        </mxCell>
        <mxCell id="svscq64S9WQrC5IOfQ_I-11" value="게시판 정렬" style="rounded=1;whiteSpace=wrap;html=1;arcSize=40;fontColor=#000000;fillColor=#ffffc0;strokeColor=#ff0000;" vertex="1" parent="1">
          <mxGeometry x="384" y="420" width="120" height="40" as="geometry" />
        </mxCell>
        <mxCell id="svscq64S9WQrC5IOfQ_I-29" style="rounded=0;orthogonalLoop=1;jettySize=auto;html=1;exitX=0;exitY=0.5;exitDx=0;exitDy=0;dashed=1;entryX=1;entryY=0.5;entryDx=0;entryDy=0;" edge="1" parent="1" source="svscq64S9WQrC5IOfQ_I-12" target="svscq64S9WQrC5IOfQ_I-6">
          <mxGeometry relative="1" as="geometry">
            <mxPoint x="294" y="450" as="targetPoint" />
          </mxGeometry>
        </mxCell>
        <mxCell id="svscq64S9WQrC5IOfQ_I-33" value="extend" style="edgeLabel;html=1;align=center;verticalAlign=middle;resizable=0;points=[];" vertex="1" connectable="0" parent="svscq64S9WQrC5IOfQ_I-29">
          <mxGeometry x="-0.5836" y="2" relative="1" as="geometry">
            <mxPoint as="offset" />
          </mxGeometry>
        </mxCell>
        <mxCell id="svscq64S9WQrC5IOfQ_I-12" value="게시판 검색" style="rounded=1;whiteSpace=wrap;html=1;arcSize=40;fontColor=#000000;fillColor=#ffffc0;strokeColor=#ff0000;" vertex="1" parent="1">
          <mxGeometry x="384" y="480" width="120" height="40" as="geometry" />
        </mxCell>
        <mxCell id="svscq64S9WQrC5IOfQ_I-34" style="rounded=0;orthogonalLoop=1;jettySize=auto;html=1;exitX=0;exitY=0.5;exitDx=0;exitDy=0;entryX=1;entryY=0.5;entryDx=0;entryDy=0;dashed=1;" edge="1" parent="1" source="svscq64S9WQrC5IOfQ_I-13" target="svscq64S9WQrC5IOfQ_I-7">
          <mxGeometry relative="1" as="geometry" />
        </mxCell>
        <mxCell id="svscq64S9WQrC5IOfQ_I-43" style="rounded=0;orthogonalLoop=1;jettySize=auto;html=1;exitX=1;exitY=0.5;exitDx=0;exitDy=0;entryX=0;entryY=0.5;entryDx=0;entryDy=0;endArrow=none;endFill=0;" edge="1" parent="1" source="svscq64S9WQrC5IOfQ_I-13" target="svscq64S9WQrC5IOfQ_I-37">
          <mxGeometry relative="1" as="geometry">
            <mxPoint x="720" y="460" as="targetPoint" />
          </mxGeometry>
        </mxCell>
        <mxCell id="svscq64S9WQrC5IOfQ_I-13" value="게시글 쓰기,수정,삭제" style="rounded=1;whiteSpace=wrap;html=1;arcSize=40;fontColor=#000000;fillColor=#ffffc0;strokeColor=#ff0000;" vertex="1" parent="1">
          <mxGeometry x="384" y="555" width="120" height="40" as="geometry" />
        </mxCell>
        <mxCell id="svscq64S9WQrC5IOfQ_I-35" style="rounded=0;orthogonalLoop=1;jettySize=auto;html=1;exitX=0;exitY=0.5;exitDx=0;exitDy=0;entryX=1;entryY=0.5;entryDx=0;entryDy=0;dashed=1;" edge="1" parent="1" source="svscq64S9WQrC5IOfQ_I-14" target="svscq64S9WQrC5IOfQ_I-7">
          <mxGeometry relative="1" as="geometry" />
        </mxCell>
        <mxCell id="svscq64S9WQrC5IOfQ_I-36" value="extend" style="edgeLabel;html=1;align=center;verticalAlign=middle;resizable=0;points=[];" vertex="1" connectable="0" parent="svscq64S9WQrC5IOfQ_I-35">
          <mxGeometry x="-0.3738" y="3" relative="1" as="geometry">
            <mxPoint as="offset" />
          </mxGeometry>
        </mxCell>
        <mxCell id="svscq64S9WQrC5IOfQ_I-44" style="rounded=0;orthogonalLoop=1;jettySize=auto;html=1;entryX=0;entryY=0.5;entryDx=0;entryDy=0;endArrow=none;endFill=0;" edge="1" parent="1" source="svscq64S9WQrC5IOfQ_I-14" target="svscq64S9WQrC5IOfQ_I-37">
          <mxGeometry relative="1" as="geometry">
            <Array as="points">
              <mxPoint x="570" y="550" />
            </Array>
          </mxGeometry>
        </mxCell>
        <mxCell id="svscq64S9WQrC5IOfQ_I-14" value="댓글 보기, 쓰기,&lt;br&gt;수정,삭제" style="rounded=1;whiteSpace=wrap;html=1;arcSize=40;fontColor=#000000;fillColor=#ffffc0;strokeColor=#ff0000;" vertex="1" parent="1">
          <mxGeometry x="384" y="620" width="120" height="40" as="geometry" />
        </mxCell>
        <mxCell id="svscq64S9WQrC5IOfQ_I-15" style="rounded=0;orthogonalLoop=1;jettySize=auto;html=1;exitX=0;exitY=0.5;exitDx=0;exitDy=0;entryX=1;entryY=0.3333333333333333;entryDx=0;entryDy=0;entryPerimeter=0;endArrow=none;endFill=0;" edge="1" parent="1" source="svscq64S9WQrC5IOfQ_I-4" target="svscq64S9WQrC5IOfQ_I-1">
          <mxGeometry relative="1" as="geometry" />
        </mxCell>
        <mxCell id="svscq64S9WQrC5IOfQ_I-37" value="&lt;p style=&quot;margin:0px;margin-top:6px;text-align:center;&quot;&gt;&lt;br&gt;&lt;/p&gt;&lt;p style=&quot;margin:0px;margin-top:6px;text-align:center;&quot;&gt;DB&lt;/p&gt;&lt;p style=&quot;margin:0px;margin-top:6px;text-align:center;&quot;&gt;&lt;br&gt;&lt;/p&gt;" style="align=left;overflow=fill;html=1;dropTarget=0;whiteSpace=wrap;fontStyle=1" vertex="1" parent="1">
          <mxGeometry x="730" y="350" width="80" height="70" as="geometry" />
        </mxCell>
      </root>
    </mxGraphModel>
  </diagram>
</mxfile>
